<svg width="20" height="21" viewBox="0 0 20 21" fill="none" xmlns="http://www.w3.org/2000/svg">
<path d="M11.25 3.44416e-07C10.2344 -0.000359007 9.23854 0.28049 8.37278 0.811421C7.50701 1.34235 6.80516 2.10263 6.345 3.008C7.44108 3.06173 8.50914 3.3726 9.46286 3.91547C10.4166 4.45834 11.2292 5.21798 11.835 6.133C12.295 6.046 12.768 6 13.25 6H16.728C16.742 5.835 16.75 5.669 16.75 5.5V1.44C16.75 1.05809 16.5983 0.691819 16.3282 0.421767C16.0582 0.151714 15.6919 3.44416e-07 15.31 3.44416e-07H11.25ZM6.176 15.997C5.37364 16.0205 4.5747 15.8829 3.82651 15.5921C3.07832 15.3013 2.39608 14.8633 1.8202 14.3041C1.24431 13.7449 0.786488 13.0759 0.473834 12.3366C0.161181 11.5972 5.59369e-05 10.8027 0 10V5.514C0 4.678 0.678 4 1.514 4H6C7.966 4 9.712 4.946 10.806 6.407C9.16998 6.9726 7.77911 8.08516 6.868 9.557L5.28 7.97C5.13783 7.83752 4.94978 7.7654 4.75548 7.76883C4.56118 7.77225 4.37579 7.85097 4.23838 7.98838C4.10097 8.12579 4.02225 8.31118 4.01883 8.50548C4.0154 8.69978 4.08752 8.88782 4.22 9.03L6.18 10.99C5.89441 11.796 5.74897 12.6449 5.75 13.5C5.75 14.376 5.9 15.216 6.176 15.997ZM6.75 13.5C6.75 11.7761 7.43482 10.1228 8.65381 8.90381C9.87279 7.68482 11.5261 7 13.25 7H18.164C19.04 7 19.75 7.71 19.75 8.586V13.5C19.75 14.7216 19.4058 15.9185 18.7567 16.9534C18.1077 17.9884 17.1801 18.8195 16.0804 19.3514C14.9807 19.8834 13.7534 20.0947 12.5391 19.961C11.3248 19.8274 10.1727 19.3543 9.215 18.596L8.03 19.78C7.96134 19.8537 7.87854 19.9128 7.78654 19.9538C7.69454 19.9948 7.59522 20.0168 7.49452 20.0186C7.39382 20.0204 7.29379 20.0018 7.2004 19.9641C7.10701 19.9264 7.02218 19.8703 6.95096 19.799C6.87974 19.7278 6.8236 19.643 6.78588 19.5496C6.74816 19.4562 6.72963 19.3562 6.73141 19.2555C6.73318 19.1548 6.75523 19.0555 6.79622 18.9635C6.83721 18.8715 6.89631 18.7887 6.97 18.72L8.154 17.535C7.24283 16.3877 6.74786 14.9651 6.75 13.5ZM9.927 17.883L14.53 13.28C14.6037 13.2113 14.6628 13.1285 14.7038 13.0365C14.7448 12.9445 14.7668 12.8452 14.7686 12.7445C14.7704 12.6438 14.7518 12.5438 14.7141 12.4504C14.6764 12.357 14.6203 12.2722 14.549 12.201C14.4778 12.1297 14.393 12.0736 14.2996 12.0359C14.2062 11.9982 14.1062 11.9796 14.0055 11.9814C13.9048 11.9832 13.8055 12.0052 13.7135 12.0462C13.6215 12.0872 13.5387 12.1463 13.47 12.22L8.867 16.823C9.17 17.223 9.527 17.58 9.927 17.883Z" fill="#01A58A"/>
</svg>
